:SAMPLES-PER-SECOND 30
:FULLY-SPECIFIED
:DEGREES
176
root  -11.4591 35.0242 46.3764 -83.1782 58.2236 -92.8234
RightUpLeg  -34.8482 -16.6073 2.56591
RightLeg  63.7345 -3.69663 -8.7289
RightFoot  -11.9799 0.0301365 19.7166
RightToes  -5.82094e-011 -1.98785e-016 -5.10186e-018
Spine  32.9331 5.58311 -33.9067
Spine1  -8.58453 -10.1668 30.928
HEad  -3.22072 -36.7561 28.8873
LeftShoulder1  -0.780189 -2.59315 24.4746
LeftArm  122.147 -73.6548 169.979
LeftForeArm  56.7439 -52.3365 -10.1241
LeftHand  0.112893 6.43401 14.7136
RightShoulder  2.54092 6.19989 19.7859
RightArm  14.8479 -28.1539 25.8219
RightForeArm  28.9403 17.0981 5.08365
RightHand  -1.45431 12.3812 -9.97544
LeftUpLeg  -43.2913 -2.8457 11.516
LeftLeg  50.9762 -13.0784 -16.2413
LeftFoot  0.7217 -2.60899 24.3665
LeftToes  -8.4584e-011 5.90861e-011 8.40072e-012
177
root  -11.5893 36.1535 48.7198 -95.3977 46.6524 -112.125
RightUpLeg  -38.2542 -22.41 5.29321
RightLeg  61.9554 -2.36577 -5.31038
RightFoot  -14.0544 0.403101 20.8787
RightToes  -5.82094e-011 -1.98785e-016 -5.10186e-018
Spine  37.2298 3.5535 -28.1208
Spine1  -8.49552 -12.5107 40.2436
HEad  -6.73751 -34.731 29.3217
LeftShoulder1  -1.11244 -9.71926 19.5564
LeftArm  97.3955 -70.1146 -154.769
LeftForeArm  57.911 -51.9412 -9.88681
LeftHand  0.0999497 6.3429 14.1953
RightShoulder  2.65757 5.92163 21.9598
RightArm  15.419 -30.482 27.2533
RightForeArm  40.0174 15.3399 6.42086
RightHand  0.345085 14.3391 1.6474
LeftUpLeg  -51.6795 10.5737 14.6598
LeftLeg  49.5151 -7.45508 -8.92995
LeftFoot  -0.631692 -2.06823 21.2959
LeftToes  -8.4584e-011 5.90861e-011 8.40072e-012
178
root  -11.12 36.9419 51.0818 -98.2105 37.3041 -119.331
RightUpLeg  -35.3944 -29.5868 4.40218
RightLeg  62.731 0.328089 0.0756224
RightFoot  -14.9778 0.60888 22.1604
RightToes  -5.82094e-011 -1.98785e-016 -5.10186e-018
Spine  35.4072 3.06941 -26.5627
Spine1  -3.64516 -14.1992 45.9422
HEad  -7.75928 -34.2011 30.418
LeftShoulder1  -0.452992 -15.6141 12.1822
LeftArm  76.5715 -64.5309 -125.148
LeftForeArm  58.7244 -53.5701 -10.5378
LeftHand  0.0465508 5.9127 13.9996
RightShoulder  2.68765 5.36887 24.1717
RightArm  19.5794 -33.9226 28.0306
RightForeArm  43.1601 16.0257 6.02926
RightHand  1.5739 13.7626 8.99068
LeftUpLeg  -61.7211 31.6145 2.98713
LeftLeg  47.2473 0.576505 1.14455
LeftFoot  -6.51827 -0.535528 14.4286
LeftToes  -8.4584e-011 5.90861e-011 8.40072e-012
179
root  -10.3782 37.1559 53.4232 -100.232 32.2741 -124.9
RightUpLeg  -25.3343 -34.6314 -5.19419
RightLeg  61.5173 -0.136755 -0.90309
RightFoot  -15.558 0.712674 22.0866
RightToes  -5.82094e-011 -1.98785e-016 -5.10186e-018
Spine  32.2601 2.38658 -27.906
Spine1  -1.39365 -15.8797 49.2992
HEad  -5.38715 -35.8518 31.4024
LeftShoulder1  0.684362 -16.4722 5.73731
LeftArm  61.6621 -55.5024 -107.25
LeftForeArm  60.714 -55.8764 -11.5399
LeftHand  0.0875374 6.17658 14.5081
RightShoulder  2.62605 4.8473 25.3854
RightArm  26.3475 -41.2379 26.7608
RightForeArm  42.6663 18.4606 4.2817
RightHand  1.72599 12.7155 10.5248
LeftUpLeg  -79.0404 45.9821 -20.5656
LeftLeg  45.8409 2.27644 3.14264
LeftFoot  -11.902 0.0318718 9.7764
LeftToes  -8.4584e-011 5.90861e-011 8.40072e-012
180
root  -9.68338 36.4551 55.3969 -99.3997 21.6682 -132.259
RightUpLeg  -11.2419 -37.5655 -9.70566
RightLeg  49.4567 -4.74835 -5.93193
RightFoot  -16.499 0.8447 21.0113
RightToes  -5.82094e-011 -1.98785e-016 -5.10186e-018
Spine  26.4037 -2.37542 -19.8656
Spine1  -2.85924 -16.8189 50.3333
HEad  -3.78103 -40.3598 32.9972
LeftShoulder1  1.00695 -17.5578 4.1853
LeftArm  52.6364 -47.1035 -97.2643
LeftForeArm  60.0157 -59.4708 -13.5605
LeftHand  0.27968 7.55925 15.9257
RightShoulder  2.19742 3.60837 24.8065
RightArm  25.9915 -49.3829 25.2174
RightForeArm  45.4819 15.8249 6.51348
RightHand  1.44422 13.073 8.51878
LeftUpLeg  -93.7101 43.5641 -32.5524
LeftLeg  40.2212 -4.68685 -3.92843
LeftFoot  -23.1204 0.906111 6.32466
LeftToes  -8.4584e-011 5.90861e-011 8.40072e-012
181
root  -8.71981 35.3284 57.1256 -96.0133 11.822 -140.712
RightUpLeg  3.31971 -27.6786 -7.19159
RightLeg  28.1707 -21.2661 -11.3119
RightFoot  -16.5289 0.874489 21.1674
RightToes  -5.82094e-011 -1.98785e-016 -5.10186e-018
Spine  16.99 -6.41564 -14.9052
Spine1  -5.06592 -18.2776 53.7502
HEad  -3.60409 -45.2777 37.1897
LeftShoulder1  0.447514 -16.0084 7.06654
LeftArm  50.582 -42.2924 -95.7725
LeftForeArm  64.096 -63.1313 -15.9321
LeftHand  0.0957893 6.22603 15.4196
RightShoulder  1.71249 2.19227 23.9817
RightArm  12.1644 -52.8555 25.4693
RightForeArm  65.1838 6.97029 11.4198
RightHand  2.01131 13.9241 11.7163
LeftUpLeg  -100.361 33.8136 -30.5214
LeftLeg  40.2141 -11.1689 -9.62774
LeftFoot  -30.1984 2.26224 12.6768
LeftToes  -8.4584e-011 5.90861e-011 8.40072e-012
182
root  -7.9821 34.9007 59.1353 -93.6596 10.4231 -147.008
RightUpLeg  12.1776 -6.9699 -5.21211
RightLeg  16.0201 -44.4612 -13.5568
RightFoot  -15.3445 0.354321 13.3226
RightToes  -5.82094e-011 -1.98785e-016 -5.10186e-018
Spine  13.9859 -6.66368 -21.0863
Spine1  -9.81954 -17.5053 57.4326
HEad  -3.99923 -47.9521 39.7673
LeftShoulder1  0.203273 -12.7346 8.15986
LeftArm  54.231 -42.7921 -92.2179
LeftForeArm  68.0724 -68.9562 -21.5732
LeftHand  0.054472 5.96023 14.3801
RightShoulder  1.68994 2.17432 23.6478
RightArm  1.5614 -53.0234 26.3324
RightForeArm  80.3026 -0.839976 11.5381
RightHand  3.10005 11.6706 20.2995
LeftUpLeg  -104.866 26.4906 -32.2234
LeftLeg  41.203 -14.1127 -12.5106
LeftFoot  -31.6767 2.65117 13.6737
LeftToes  -8.4584e-011 5.90861e-011 8.40072e-012
183
root  -8.04301 34.7721 60.8582 -92.5745 12.0548 -149.841
RightUpLeg  16.1935 -10.4159 -12.787
RightLeg  15.58 -39.2026 -11.7961
RightFoot  -15.5588 0.300828 11.2018
RightToes  -5.82094e-011 -1.98785e-016 -5.10186e-018
Spine  17.7917 -5.03098 -25.7481
Spine1  -15.9907 -14.007 58.5677
HEad  -5.64516 -47.0778 37.461
LeftShoulder1  0.403069 -10.4967 6.39652
LeftArm  56.0538 -45.9419 -87.1032
LeftForeArm  77.5267 -74.2539 -30.0336
LeftHand  -0.0382759 5.16406 13.3718
RightShoulder  2.12733 3.74681 23.2043
RightArm  1.34614 -48.1106 26.0942
RightForeArm  81.8642 -2.68889 10.5558
RightHand  2.87726 9.73782 21.1856
LeftUpLeg  -104.977 21.0763 -28.712
LeftLeg  39.9082 -9.0327 -7.69016
LeftFoot  -32.1555 2.46283 12.2789
LeftToes  -8.4584e-011 5.90861e-011 8.40072e-012
184
root  -8.27918 34.8773 62.5665 -90.8243 10.5692 -152.297
RightUpLeg  15.9353 -13.7992 -15.099
RightLeg  20.8028 -41.3019 -15.5025
RightFoot  -17.3501 0.461628 8.91522
RightToes  -5.82094e-011 -1.98785e-016 -5.10186e-018
Spine  17.0991 -5.04032 -26.2007
Spine1  -15.5079 -14.3424 58.3493
HEad  -7.6419 -46.0824 36.3278
LeftShoulder1  0.622452 -11.7016 4.94275
LeftArm  54.2972 -49.6403 -82.6975
LeftForeArm  82.7637 -76.505 -36.2359
LeftHand  -0.141968 3.88531 9.81998
RightShoulder  2.39433 4.98962 21.9384
RightArm  2.56608 -38.2384 27.2564
RightForeArm  74.2121 -1.00586 10.8047
RightHand  1.11058 9.42777 8.91934
LeftUpLeg  -105.816 15.6572 -21.7415
LeftLeg  36.9118 -3.61326 -2.51673
LeftFoot  -29.8743 1.9424 10.7734
LeftToes  -8.4584e-011 5.90861e-011 8.40072e-012
185
root  -8.55849 35.1181 64.0407 -91.9036 9.90671 -153.845
RightUpLeg  16.0742 -18.4975 -17.9695
RightLeg  19.8762 -27.9627 -10.7811
RightFoot  -24.7452 1.75118 16.6776
RightToes  -5.82094e-011 -1.98785e-016 -5.10186e-018
Spine  17.1704 -4.60516 -25.6285
Spine1  -13.0293 -15.0093 54.1951
HEad  -6.96989 -47.4377 36.8295
LeftShoulder1  0.642573 -13.7847 5.41065
LeftArm  55.8292 -52.4555 -85.5926
LeftForeArm  78.5543 -74.1181 -29.5308
LeftHand  -0.212415 2.59622 8.62984
RightShoulder  2.49637 5.66796 20.908
RightArm  4.67525 -30.1409 28.8596
RightForeArm  63.0011 2.01133 11.0288
RightHand  -0.476171 10.7856 -4.11561
LeftUpLeg  -104.986 13.3732 -18.5547
LeftLeg  33.8916 -1.09864 -0.435208
LeftFoot  -27.7031 1.41932 8.65267
LeftToes  -8.4584e-011 5.90861e-011 8.40072e-012
